# Alias OBJ Model File
# Exported from SketchUp, (c) 2000-2012 Trimble Navigation Limited
# File units = centimeters

mtllib Haus.mtl

g Mesh1 Model

usemtl FrontColor
v -1 0.693934 -1
vt -0.393701 0.273202
vn -1 0 -0
v -1 0 -0
vt 0 0
v -1 0.693934 -0
vt 0 0.273202
f 1/1/1 2/2/1 3/3/1

v -1 0 -1
vt -0.393701 0
f 4/4/1 2/2/1 1/1/1

v 0 0 -1
vt 0 0.393701
vn 0 -1 -0
vt 0.393701 0
vt 0.393701 0.393701
f 5/5/2 2/6/2 4/7/2

v 0 0 -0
f 6/2/2 2/6/2 5/5/2

vn 0 0 1
f 3/1/3 2/4/3 6/2/3

v 0 0.693934 -0
f 3/1/3 6/2/3 7/3/3

vn 1 0 -0
f 5/6/4 7/3/4 6/2/4

v 0 0.693934 -1
vt 0.393701 0.273202
f 8/8/4 7/3/4 5/6/4

v 0.106066 0.693934 -1.1
vt -0.0417583 0.433071
f 9/9/2 7/2/2 8/5/2

v 0.106066 0.693934 0.1
vt -0.0417583 -0.0393701
f 10/10/2 7/2/2 9/9/2

v -1.10607 0.693934 0.1
vt 0.435459 -0.0393701
f 10/10/2 11/11/2 7/2/2

v -0.5 1.3 0.1
vt -0.19685 0.511811
vt -0.435459 0.273202
vt 0.0417583 0.273202
f 12/12/3 11/13/3 10/14/3

v -1.10607 0.693934 -1.1
vt -0.433071 -0.114733
vn -0.707107 0.707107 -0
vt 0.0393701 -0.114733
vt 0.0393701 0.222711
f 13/15/5 11/16/5 12/17/5

vt 0.435459 0.433071
f 3/6/2 11/11/2 13/18/2

f 7/2/2 11/11/2 3/6/2

f 3/6/2 13/18/2 1/7/2

f 9/9/2 1/7/2 13/18/2

f 9/9/2 8/5/2 1/7/2

vn 0 0 -1
f 8/3/6 4/6/6 1/8/6

f 8/3/6 5/2/6 4/6/6

v -0.5 1.3 -1.1
vt 0.19685 0.511811
vt -0.0417583 0.273202
vt 0.435459 0.273202
f 14/19/6 9/20/6 13/21/6

vt 0.433071 0.163656
vn 0.707107 0.707107 1.08593e-016
vt 0.433071 0.501099
vt -0.0393701 0.163656
f 9/22/7 14/23/7 10/24/7

vn 0.707107 0.707107 -0
vt -0.0393701 0.501099
f 14/23/8 12/25/8 10/24/8

vn -0.707107 0.707107 7.23951e-017
vt -0.433071 0.222711
f 13/15/9 12/17/9 14/26/9
